.
 
http://www.scenetime.com    -   SceneTime [ We been having it ] !!!


How come you press harder on a remote control when you know the battery is dead? so you better seed to get speed ;)

        Seed back for speed


...................................NFO:.................................................
   General
      Complete name : American.Pie.8.Hole.In.One.2010.DvDRip.XviD-[ev].avi
      Format : AVI
      Format/Info : Audio Video Interleave
      File size : 701 MiB
      Duration : 1h 35mn
      Overall bit rate : 1 022 Kbps
      Writing application : VirtualDubMod 1.5.4.1 (build 2178/release)
      Writing library : VirtualDubMod build 2178/release
      IAS1 : English
   Video
      Format : MPEG-4 Visual
      Format profile : Streaming Video@L1
      Format settings, BVOP : Yes
      Format settings, QPel : No
      Format settings, GMC : No warppoints
      Format settings, Matrix : Custom
      Codec ID : XVID
      Codec ID/Hint : XviD
      Duration : 1h 35mn
      Bit rate : 898 Kbps
      Width : 608 pixels
      Height : 352 pixels
      Display aspect ratio : 16/9
      Frame rate : 25.000 fps
      Resolution : 24 bits
      Colorimetry : 4:2:0
      Scan type : Progressive
      Bits/(Pixel*Frame) : 0.168
      Stream size : 616 MiB (88%)
      Writing library : XviD 50
   Audio
      Format : MPEG Audio
      Format version : Version 1
      Format profile : Layer 3
      Codec ID : 55
      Codec ID/Hint : MP3
      Duration : 1h 35mn
      Bit rate mode : Variable
      Bit rate : 111 Kbps
      Minimum bit rate : 128 Kbps
      Channel(s) : 2 channels
      Sampling rate : 48.0 KHz
      Resolution : 16 bits
      Stream size : 76.3 MiB (11%)
      Alignment : Aligned on interleaves
      Interleave, duration : 24 ms (0.60 video frame)
      Interleave, preload duration : 165 ms
      Writing library : LAME3.98r
      Encoding settings : ABR